<svg xmlns="http://www.w3.org/2000/svg" width="22.925" height="43.667" viewBox="0 0 22.925 43.667"><defs><style>.a,.b,.d{fill:none;}.a{stroke:#fff;}.c,.e{stroke:none;}.e{fill:#fff;}</style></defs><g transform="translate(-731 -968)"><g class="a" transform="translate(731 968)"><rect class="c" width="22.925" height="43.667" rx="11.463"/><rect class="d" x="0.5" y="0.5" width="21.925" height="42.667" rx="10.963"/></g><g class="b" transform="translate(740.279 975.642)"><path class="c" d="M2.183,0A2.183,2.183,0,0,1,4.367,2.183V7.642A2.183,2.183,0,0,1,0,7.642V2.183A2.183,2.183,0,0,1,2.183,0Z"/><path class="e" d="M 2.183334350585938 1.000001907348633 C 1.530844449996948 1.000001907348633 1.000004291534424 1.530841827392578 1.000004291534424 2.183332443237305 L 1.000004291534424 7.641672134399414 C 1.000004291534424 8.294162750244141 1.530844449996948 8.825002670288086 2.183334350585938 8.825002670288086 C 2.835824489593506 8.825002670288086 3.366664409637451 8.294162750244141 3.366664409637451 7.641672134399414 L 3.366664409637451 2.183332443237305 C 3.366664409637451 1.530841827392578 2.835824489593506 1.000001907348633 2.183334350585938 1.000001907348633 M 2.183334350585938 1.9073486328125e-06 C 3.389154434204102 1.9073486328125e-06 4.366664409637451 0.9775123596191406 4.366664409637451 2.183332443237305 L 4.366664409637451 7.641672134399414 C 4.366664409637451 8.847492218017578 3.389154434204102 9.825002670288086 2.183334350585938 9.825002670288086 C 0.9775142669677734 9.825002670288086 4.291534423828125e-06 8.847492218017578 4.291534423828125e-06 7.641672134399414 L 4.291534423828125e-06 2.183332443237305 C 4.291534423828125e-06 0.9775123596191406 0.9775142669677734 1.9073486328125e-06 2.183334350585938 1.9073486328125e-06 Z"/></g></g></svg>